<?xml version="1.0" encoding="utf-8"?>
<!-- Generator: Adobe Illustrator 19.2.1, SVG Export Plug-In . SVG Version: 6.00 Build 0)  -->
<svg version="1.1" id="Layer_1" xmlns="http://www.w3.org/2000/svg" xmlns:xlink="http://www.w3.org/1999/xlink" x="0px" y="0px"
	 viewBox="0 0 127.5 65" style="enable-background:new 0 0 127.5 65;" xml:space="preserve">
<style type="text/css">
	.st0{fill:#FFFFFF;}
</style>
<g>
	<path class="st0" d="M41.2,31.4c-1.9,5.3-7,9-12.9,9c-7.6,0-13.7-6.2-13.7-13.7S20.7,13,28.3,13c5.9,0,11,3.8,12.9,9
		c0.7-3.7,2.3-7.1,4.6-10c-4.2-5-10.5-8.1-17.5-8.1C15.6,3.8,5.4,14.1,5.4,26.7v32c0,2.5,2.1,4.6,4.6,4.6s4.6-2.1,4.6-4.6V45
		c3.8,2.9,8.6,4.6,13.7,4.6c7,0,13.3-3.2,17.5-8.1C43.5,38.6,41.9,35.1,41.2,31.4z"/>
	<path class="st0" d="M42,26.7c0,5.1,1.7,9.9,4.6,13.7c2.9-3.8,4.6-8.6,4.6-13.7c0-5.1-1.7-9.9-4.6-13.7C43.7,16.8,42,21.6,42,26.7z
		"/>
	<path class="st0" d="M83.2,22.1c-2.5,0-4.6,2-4.6,4.6v0c0,7.5,3.6,14.1,9.1,18.3l0,0V26.7C87.7,24.2,85.7,22.1,83.2,22.1z"/>
	<g>
		<path class="st0" d="M95.8,18.5c-1.1,0.9-2.4,1.3-3.9,1.3c-0.9,0-1.8-0.2-2.7-0.5c-1-0.4-1.7-0.9-2.1-1.6
			c-0.3-0.4-0.5-0.8-0.6-1.3c0-0.2-0.1-0.3-0.1-0.5c-0.1-0.5,0.3-0.9,0.8-0.9l2.8,0c0.2,0,0.4,0.1,0.4,0.3c0.3,0.8,0.8,1.1,1.7,1.1
			c1.1,0,1.7-0.6,1.7-1.7c0-0.8-0.4-1.3-1.3-1.5c-0.3-0.1-0.7-0.1-1.1-0.1l-0.6,0c-0.2,0-0.4-0.2-0.4-0.4v-2c0-0.2,0.2-0.4,0.4-0.4
			l0,0c0.2,0,0.3,0,0.4,0c0.3,0,0.6-0.1,0.8-0.2c0.6-0.2,0.9-0.7,0.9-1.4c0-0.9-0.4-1.4-1.1-1.4c-0.7,0-1.1,0.3-1.2,1
			c0,0.2-0.2,0.4-0.4,0.4l-2.6,0c-0.5,0-0.8-0.4-0.8-0.9c0.2-1.1,0.7-2,1.5-2.7c1-0.8,2.2-1.2,3.7-1.2c1.3,0,2.4,0.4,3.3,1.1
			c1,0.8,1.5,1.8,1.5,3.1c0,1.4-0.7,2.5-2,3.2c1.9,0.7,2.9,1.9,2.9,3.7C97.6,16.4,97,17.6,95.8,18.5z"/>
		<path class="st0" d="M109.6,18.2c-1.1,1.1-2.6,1.7-4.2,1.7c-1.8,0-3.2-0.5-4.4-1.6c-1.2-1.1-1.7-2.5-1.7-4.3
			c0-0.7,0.1-1.4,0.4-2.2c0.2-0.7,0.6-1.3,1-2l3.6-5.3c0.1-0.2,0.4-0.3,0.6-0.3h3.1c0.4,0,0.7,0.5,0.4,0.8l-2.8,3.8l0,0
			c0.1,0,0.2-0.1,0.4-0.1l0.4,0c1.4,0,2.6,0.5,3.5,1.6c0.9,1,1.3,2.2,1.3,3.7C111.3,15.6,110.7,17,109.6,18.2z M106.7,12.8
			c-0.4-0.4-0.9-0.6-1.5-0.6c-0.6,0-1.1,0.2-1.5,0.6c-0.4,0.4-0.6,0.9-0.6,1.5c0,0.6,0.2,1.1,0.6,1.5c0.4,0.4,0.9,0.6,1.5,0.6
			s1.1-0.2,1.5-0.6c0.4-0.4,0.6-0.9,0.6-1.5C107.4,13.7,107.1,13.2,106.7,12.8z"/>
		<path class="st0" d="M123.9,16.4c-1,2.3-2.8,3.4-5.4,3.4c-1.5,0-2.7-0.4-3.8-1.1c-0.8-0.6-1.4-1.3-1.8-2.3c-0.2-0.5,0.2-1,0.7-1
			l2.6,0c0.2,0,0.4,0.1,0.6,0.3c0.4,0.5,1,0.7,1.6,0.7c0.6,0,1.1-0.2,1.5-0.6c0.4-0.4,0.6-0.9,0.6-1.4c0-1.3-0.7-2-2.1-2
			c-0.8,0-1.4,0.3-1.8,0.9c-0.2,0.3-0.5,0.4-0.8,0.3l-1.9-0.5c-0.4-0.1-0.6-0.5-0.6-0.9l1.1-7.4c0.1-0.4,0.4-0.7,0.8-0.7h7.1
			c0.4,0,0.8,0.3,0.8,0.8v1.8c0,0.4-0.3,0.8-0.8,0.8h-4.7l-0.3,2.1c0.6-0.3,1.2-0.5,2.1-0.5c2.3,0,3.9,1,4.7,3.1
			c0.3,0.7,0.4,1.4,0.4,2.1C124.3,15,124.2,15.7,123.9,16.4z"/>
	</g>
	<path class="st0" d="M64.9,13c6.5,0,11.9,4.5,13.4,10.6c1-1.6,2.9-2.7,4.9-2.7c1.6,0,3.1,0.7,4.2,1.8C85.4,11.9,76.1,3.8,64.9,3.8
		c-7,0-13.3,3.2-17.5,8.1c2.2,2.9,3.8,6.3,4.6,10C53.9,16.7,58.9,13,64.9,13z M77.8,31.4c-1.9,5.3-7,9-12.9,9c-5.9,0-11-3.8-12.9-9
		c-0.7,3.7-2.3,7.1-4.6,10c4.2,5,10.5,8.1,17.5,8.1c5.1,0,9.9-1.7,13.7-4.6c0,2.5,2.1,4.6,4.6,4.6c2,0,3.7-1.3,4.3-3.2
		C82.6,42.9,79,37.6,77.8,31.4z"/>
	<path class="st0" d="M119.8,22.1c-2.5,0-4.6,2.1-4.6,4.6v0c0,7.6-6.2,13.7-13.7,13.7c-5.5,0-10.2-3.2-12.4-7.9V45
		c0,0.3,0,0.6-0.1,0.9c3.6,2.3,7.9,3.7,12.5,3.7c5.1,0,9.9-1.7,13.7-4.6v13.7c0,2.5,2.1,4.6,4.6,4.6c2.5,0,4.6-2.1,4.6-4.6v-32
		C124.3,24.2,122.3,22.1,119.8,22.1z"/>
</g>
</svg>
