<?xml version="1.0" encoding="utf-8"?>
<!-- Generator: Adobe Illustrator 19.2.1, SVG Export Plug-In . SVG Version: 6.00 Build 0)  -->
<svg version="1.1" id="Layer_1" xmlns="http://www.w3.org/2000/svg" xmlns:xlink="http://www.w3.org/1999/xlink" x="0px" y="0px"
	 viewBox="0 0 195.7 87.7" style="enable-background:new 0 0 195.7 87.7;" xml:space="preserve">
<style type="text/css">
	.st0{fill:none;}
	.st1{fill:url(#SVGID_1_);}
	.st2{fill:url(#SVGID_2_);}
	.st3{fill:url(#SVGID_3_);}
	.st4{fill:#6C5CA7;}
</style>
<path class="st0" d="M152.8,1338.8c10.1-13.1,52-78,103-78s64,37,102,82c-0.2-58.1,0-180,0-180h-205
	C152.8,1162.8,152.4,1311.6,152.8,1338.8z"/>
<g>
	<linearGradient id="SVGID_1_" gradientUnits="userSpaceOnUse" x1="51.2643" y1="77.6549" x2="51.2643" y2="0.8078">
		<stop  offset="0" style="stop-color:#9D76B3"/>
		<stop  offset="1" style="stop-color:#6C5CA7"/>
	</linearGradient>
	<path class="st1" d="M51.3,1C34.8,1,21.4,14.4,21.4,30.9v41.8c0,3.3,2.7,6,6,6s6-2.7,6-6V54.8c5,3.7,11.2,6,17.9,6
		c16.5,0,29.9-13.4,29.9-29.9C81.1,14.4,67.8,1,51.3,1z M51.3,48.8c-9.9,0-17.9-8-17.9-17.9S41.4,13,51.3,13s17.9,8,17.9,17.9
		S61.1,48.8,51.3,48.8z"/>
	<linearGradient id="SVGID_2_" gradientUnits="userSpaceOnUse" x1="99.0366" y1="59.9393" x2="99.0366" y2="0.2239">
		<stop  offset="0" style="stop-color:#FACC0B"/>
		<stop  offset="1" style="stop-color:#EF8843"/>
	</linearGradient>
	<path class="st2" d="M99,1C82.5,1,69.2,14.4,69.2,30.9c0,16.5,13.4,29.9,29.9,29.9c6.7,0,12.9-2.2,17.9-6c0,3.3,2.7,6,6,6
		c3.3,0,6-2.7,6-6V30.9C128.9,14.4,115.5,1,99,1z M99,48.8c-9.9,0-17.9-8-17.9-17.9S89.2,13,99,13S117,21,117,30.9
		S108.9,48.8,99,48.8z"/>
	<linearGradient id="SVGID_3_" gradientUnits="userSpaceOnUse" x1="146.8089" y1="78.4511" x2="146.8089" y2="24.7072">
		<stop  offset="0" style="stop-color:#9D76B3"/>
		<stop  offset="1" style="stop-color:#6C5CA7"/>
	</linearGradient>
	<path class="st3" d="M170.7,24.9c-3.3,0-6,2.7-6,6v0c0,9.9-8,17.9-17.9,17.9c-9.9,0-17.9-8-17.9-17.9v0l0,0v0c0-3.3-2.7-6-6-6
		c-3.3,0-6,2.7-6,6v0l0,0c0,16.5,13.4,29.9,29.9,29.9c6.7,0,12.9-2.2,17.9-6v17.9c0,3.3,2.7,6,6,6s6-2.7,6-6V30.9
		C176.7,27.6,174,24.9,170.7,24.9z"/>
	<g>
		<path class="st4" d="M140.7,19.5c-1.4,1.1-3,1.6-4.9,1.6c-1.2,0-2.3-0.2-3.4-0.7c-1.2-0.5-2.1-1.2-2.7-2.1
			c-0.3-0.5-0.6-1.1-0.8-1.7c-0.1-0.2-0.1-0.4-0.1-0.6c-0.1-0.6,0.3-1.2,1-1.2l3.5,0c0.2,0,0.4,0.2,0.5,0.4c0.3,1,1.1,1.4,2.1,1.4
			c1.4,0,2.1-0.7,2.1-2.2c0-1-0.5-1.6-1.6-1.9c-0.4-0.1-0.8-0.1-1.4-0.1l-0.8,0c-0.3,0-0.6-0.2-0.6-0.6V9.6c0-0.3,0.2-0.6,0.6-0.6
			l0,0c0.2,0,0.4,0,0.6,0c0.4,0,0.8-0.1,1.1-0.2c0.7-0.3,1.1-0.8,1.1-1.7c0-1.1-0.5-1.7-1.4-1.7c-0.8,0-1.3,0.4-1.5,1.2
			c0,0.3-0.3,0.4-0.6,0.4l-3.3,0c-0.6,0-1.1-0.5-1-1.1c0.2-1.4,0.9-2.5,1.9-3.4c1.2-1,2.8-1.6,4.7-1.6c1.6,0,3,0.5,4.2,1.4
			c1.3,1,1.9,2.3,1.9,3.9c0,1.8-0.9,3.1-2.6,4.1c2.4,0.8,3.6,2.4,3.6,4.7C143,16.8,142.3,18.3,140.7,19.5z"/>
		<path class="st4" d="M158.1,19.1c-1.4,1.4-3.2,2.1-5.3,2.1c-2.2,0-4-0.7-5.5-2.1c-1.5-1.4-2.2-3.2-2.2-5.4c0-0.9,0.2-1.8,0.5-2.7
			c0.3-0.8,0.7-1.6,1.3-2.5l4.5-6.7c0.2-0.3,0.5-0.4,0.8-0.4h4c0.5,0,0.8,0.6,0.5,1l-3.5,4.8l0.1,0.1c0.1,0,0.3-0.1,0.5-0.1l0.5,0
			c1.8,0,3.3,0.7,4.4,2c1.1,1.3,1.7,2.8,1.7,4.6C160.2,15.9,159.5,17.6,158.1,19.1z M154.5,12.3c-0.5-0.5-1.2-0.7-1.9-0.7
			c-0.7,0-1.4,0.2-1.9,0.7c-0.5,0.5-0.8,1.1-0.8,1.8c0,0.8,0.2,1.4,0.7,1.9c0.5,0.5,1.1,0.8,1.9,0.8c0.8,0,1.4-0.2,1.9-0.7
			c0.5-0.5,0.8-1.1,0.8-1.9C155.3,13.4,155,12.8,154.5,12.3z"/>
		<path class="st4" d="M176.1,16.9c-1.2,2.9-3.5,4.3-6.9,4.3c-1.8,0-3.4-0.5-4.8-1.4c-1-0.7-1.8-1.7-2.2-2.8
			c-0.3-0.6,0.2-1.3,0.9-1.3l3.2,0c0.3,0,0.5,0.1,0.7,0.3c0.5,0.6,1.2,0.9,2,0.9c0.7,0,1.3-0.3,1.8-0.8c0.5-0.5,0.8-1.1,0.8-1.8
			c0-1.7-0.9-2.5-2.6-2.5c-1,0-1.7,0.4-2.2,1.1c-0.2,0.3-0.6,0.5-1,0.4l-2.4-0.6c-0.5-0.1-0.8-0.6-0.7-1.1l1.4-9.3
			c0.1-0.5,0.5-0.8,1-0.8h8.9c0.5,0,1,0.4,1,1v2.2c0,0.5-0.4,1-1,1h-6l-0.4,2.6c0.7-0.4,1.6-0.6,2.6-0.6c2.9,0,4.9,1.3,6,3.9
			c0.3,0.8,0.5,1.7,0.5,2.6C176.7,15.1,176.5,16,176.1,16.9z"/>
	</g>
</g>
</svg>
